<?xml version="1.0" encoding="UTF-8"?><svg id="Ebene_1" xmlns="http://www.w3.org/2000/svg" xmlns:xlink="http://www.w3.org/1999/xlink" viewBox="0 0 155 157.67"><defs><style>.cls-1{stroke-width:.77px;}.cls-1,.cls-2,.cls-3,.cls-4,.cls-5,.cls-6,.cls-7,.cls-8,.cls-9,.cls-10,.cls-11,.cls-12,.cls-13,.cls-14,.cls-15,.cls-16,.cls-17,.cls-18,.cls-19,.cls-20,.cls-21,.cls-22,.cls-23,.cls-24,.cls-25,.cls-26,.cls-27,.cls-28,.cls-29,.cls-30,.cls-31,.cls-32,.cls-33,.cls-34,.cls-35,.cls-36,.cls-37,.cls-38,.cls-39,.cls-40,.cls-41,.cls-42,.cls-43,.cls-44,.cls-45,.cls-46,.cls-47,.cls-48,.cls-49,.cls-50,.cls-51,.cls-52,.cls-53,.cls-54,.cls-55,.cls-56,.cls-57,.cls-58,.cls-59,.cls-60,.cls-61,.cls-62,.cls-63,.cls-64,.cls-65,.cls-66,.cls-67,.cls-68,.cls-69,.cls-70,.cls-71,.cls-72,.cls-73,.cls-74,.cls-75,.cls-76,.cls-77,.cls-78,.cls-79,.cls-80,.cls-81,.cls-82,.cls-83,.cls-84,.cls-85,.cls-86,.cls-87,.cls-88,.cls-89,.cls-90,.cls-91,.cls-92,.cls-93,.cls-94,.cls-95,.cls-96,.cls-97,.cls-98,.cls-99,.cls-100,.cls-101,.cls-102,.cls-103,.cls-104,.cls-105,.cls-106{stroke-miterlimit:10;}.cls-1,.cls-3,.cls-5,.cls-8,.cls-9,.cls-10,.cls-14,.cls-15,.cls-16,.cls-17,.cls-19,.cls-21,.cls-24,.cls-25,.cls-28,.cls-29,.cls-30,.cls-31,.cls-33,.cls-34,.cls-36,.cls-39,.cls-45,.cls-46,.cls-49,.cls-52,.cls-54,.cls-58,.cls-59,.cls-61,.cls-64,.cls-65,.cls-66,.cls-67,.cls-75,.cls-80,.cls-84,.cls-94,.cls-95,.cls-97,.cls-98,.cls-99,.cls-101,.cls-102,.cls-103{fill:#585757;stroke:#585757;}.cls-2{stroke-width:.71px;}.cls-2,.cls-4,.cls-6,.cls-7,.cls-11,.cls-12,.cls-13,.cls-18,.cls-20,.cls-22,.cls-23,.cls-26,.cls-27,.cls-32,.cls-35,.cls-37,.cls-38,.cls-40,.cls-41,.cls-42,.cls-43,.cls-44,.cls-47,.cls-48,.cls-50,.cls-51,.cls-53,.cls-55,.cls-56,.cls-57,.cls-60,.cls-62,.cls-63,.cls-68,.cls-69,.cls-71,.cls-72,.cls-73,.cls-74,.cls-76,.cls-77,.cls-78,.cls-79,.cls-81,.cls-82,.cls-83,.cls-85,.cls-86,.cls-87,.cls-88,.cls-89,.cls-90,.cls-91,.cls-92,.cls-93,.cls-96,.cls-100,.cls-104,.cls-105,.cls-106{fill:#ededed;stroke:#ededed;}.cls-3{stroke-width:1.61px;}.cls-4{stroke-width:1.29px;}.cls-5{stroke-width:1.35px;}.cls-6{stroke-width:1.62px;}.cls-7{stroke-width:1.33px;}.cls-8{stroke-width:1.56px;}.cls-9{stroke-width:.93px;}.cls-10{stroke-width:1.1px;}.cls-11{stroke-width:1.35px;}.cls-12{stroke-width:1.02px;}.cls-13{stroke-width:1.51px;}.cls-14{stroke-width:.86px;}.cls-15{stroke-width:1.01px;}.cls-16{stroke-width:1.23px;}.cls-17{stroke-width:1.28px;}.cls-107,.cls-108{opacity:.5;}.cls-18{stroke-width:.99px;}.cls-19{stroke-width:.71px;}.cls-20{stroke-width:.94px;}.cls-21{stroke-width:1.23px;}.cls-22{stroke-width:1.15px;}.cls-23{stroke-width:1.28px;}.cls-24{stroke-width:.9px;}.cls-25{stroke-width:.98px;}.cls-109{opacity:.6;}.cls-26{stroke-width:1.13px;}.cls-108{fill:url(#Unbenannter_Verlauf_50);}.cls-27{stroke-width:1.04px;}.cls-28{stroke-width:1.67px;}.cls-29{stroke-width:1.24px;}.cls-110{fill:#9dd4d8;}.cls-30{stroke-width:1.31px;}.cls-31{stroke-width:1.52px;}.cls-32{stroke-width:.83px;}.cls-33{stroke-width:1.53px;}.cls-34{stroke-width:1.15px;}.cls-35{stroke-width:.71px;}.cls-36{stroke-width:1.25px;}.cls-37{stroke-width:1.54px;}.cls-38{stroke-width:.76px;}.cls-39{stroke-width:1.09px;}.cls-40{stroke-width:1.61px;}.cls-41{stroke-width:1.24px;}.cls-42{stroke-width:.86px;}.cls-43{stroke-width:1.26px;}.cls-44{stroke-width:.9px;}.cls-45{stroke-width:1.23px;}.cls-46{stroke-width:.96px;}.cls-47{stroke-width:1.62px;}.cls-48{stroke-width:1.09px;}.cls-49{stroke-width:1.17px;}.cls-50{stroke-width:.74px;}.cls-51{stroke-width:1.17px;}.cls-52{stroke-width:1.24px;}.cls-53{stroke-width:.86px;}.cls-54{stroke-width:1.55px;}.cls-111{fill:url(#Unbenannter_Verlauf_101);}.cls-55{stroke-width:1.25px;}.cls-56{stroke-width:1.17px;}.cls-57{stroke-width:1.04px;}.cls-58{stroke-width:1.18px;}.cls-59{stroke-width:1.49px;}.cls-60{stroke-width:1.37px;}.cls-61{stroke-width:1.51px;}.cls-62{stroke-width:1.3px;}.cls-63{stroke-width:1.23px;}.cls-64{stroke-width:1.05px;}.cls-65{stroke-width:1.61px;}.cls-66{stroke-width:1.54px;}.cls-67{stroke-width:1.13px;}.cls-68{stroke-width:.85px;}.cls-69{stroke-width:1.13px;}.cls-70{fill:none;stroke:#8d693e;stroke-width:9px;}.cls-71{stroke-width:.88px;}.cls-72{stroke-width:1.33px;}.cls-73{stroke-width:1.13px;}.cls-74{stroke-width:1.31px;}.cls-75{stroke-width:1.38px;}.cls-76{stroke-width:.78px;}.cls-77{stroke-width:1.65px;}.cls-78{stroke-width:1.46px;}.cls-112{fill:#b3bf55;}.cls-79{stroke-width:1.25px;}.cls-80{stroke-width:.99px;}.cls-81{stroke-width:1.29px;}.cls-82{stroke-width:.88px;}.cls-83{stroke-width:1.63px;}.cls-84{stroke-width:.96px;}.cls-85{stroke-width:.71px;}.cls-86{stroke-width:1.34px;}.cls-87{stroke-width:.76px;}.cls-88{stroke-width:1.25px;}.cls-89{stroke-width:1.32px;}.cls-90{stroke-width:1.07px;}.cls-91{stroke-width:1.04px;}.cls-92{stroke-width:1.57px;}.cls-93{stroke-width:.8px;}.cls-94{stroke-width:1.62px;}.cls-95{stroke-width:.93px;}.cls-96{stroke-width:1.33px;}.cls-97{stroke-width:1.14px;}.cls-98{stroke-width:.78px;}.cls-99{stroke-width:1.08px;}.cls-100{stroke-width:1.5px;}.cls-101{stroke-width:1.56px;}.cls-102{stroke-width:1.25px;}.cls-103{stroke-width:1.2px;}.cls-104{stroke-width:1.53px;}.cls-105{stroke-width:.94px;}.cls-106{stroke-width:.81px;}</style><radialGradient id="Unbenannter_Verlauf_101" cx="79.45" cy="88.55" fx="79.45" fy="88.55" r="74.92" gradientTransform="translate(-4.68 -14.1) scale(1.03)" gradientUnits="userSpaceOnUse"><stop offset=".93" stop-color="#a0d4d7"/><stop offset=".99" stop-color="#f1f1f1" stop-opacity="0"/></radialGradient><linearGradient id="Unbenannter_Verlauf_50" x1="90.08" y1="137" x2="-30.82" y2="67.2" gradientTransform="translate(64.08 -27.96) rotate(8.93)" gradientUnits="userSpaceOnUse"><stop offset=".02" stop-color="#fff" stop-opacity=".5"/><stop offset=".48" stop-color="#000" stop-opacity="0"/><stop offset=".7" stop-color="#1d1d1b" stop-opacity="0"/><stop offset="1" stop-color="#000"/></linearGradient></defs><circle class="cls-111" cx="77.5" cy="77.5" r="77.5"/><g><path class="cls-112" d="M112.35,17.02c0,.12-.07,5.81-12.86,10.22-12.94,4.46-21.79-6.16-29.28-7.43-7.49-1.26-10.21,8.07-20.77,7.39-10.55-.68-11.21-7.39-11.21-7.39,11.19-7.64,24.71-12.1,39.27-12.1,12.69,0,24.59,3.39,34.85,9.31Z"/><path class="cls-112" d="M147.29,77.5c0,21.64-9.84,40.97-25.3,53.76,0-18.8-35.44-23.72-39.86-27.8-4.43-4.09,4.08-8.85,6.8-8.85s13.62-2.73,7.15-21.11c-6.46-18.38,40.82-32.66,40.82-32.66,6.59,10.65,10.39,23.21,10.39,36.66Z"/><path class="cls-110" d="M82.13,103.46c-4.43-4.09,4.08-8.85,6.8-8.85s13.62-2.73,7.15-21.11c-6.46-18.38,40.82-32.66,40.82-32.66-6.08-9.83-14.53-18.03-24.55-23.82,0,.12-.07,5.81-12.86,10.22-12.94,4.46-21.79-6.16-29.28-7.43-7.49-1.26-10.21,8.07-20.77,7.39-10.55-.68-11.21-7.39-11.21-7.39-7.17,4.88-13.38,11.07-18.29,18.23,0,0,2.95,1.42,6.19-2.16,3.23-3.57,14.8,3.07,17.87,4.96,3.06,1.89,2.55,7.13,0,6.18-2.56-.95-9.53,5.89-5.77,14.91s-6.15,12.25-10.63,12.25-4.54,11.24,2.1,25.7c6.64,14.47-6.12,21.93-6.12,21.93,7.52,9.15,17.32,16.35,28.54,20.71-.33-.55-10.04-16.69,7.03-12.51,17.36,4.26,14.47-3.74,17.87-3.06,6.78,1.35,21.01-4.06,23.66,5.96,2.43,9.21,11.12,5.32,11.65,5.08,.01-.01,.02-.01,.02-.01,3.41-1.96,6.63-4.22,9.64-6.71h0c0-18.81-35.44-23.73-39.86-27.81Zm-2.79-15.2c-.51,.31-1.07,.68-1.66,.79-1.11,.21-2.31-.42-3.39,.04-2.9,1.24-4.39,5.09-5.53,7.77-.97,2.29-1.71,5.92-3.66,7.62-2.72,2.38-17.02-.68-10.55-6.13,6.47-5.44,1.02-5.1-4.42-16.34-5.45-11.23,4.42-18.72,4.42-18.72,0,0,21.79-18.72,30.98-16,9.19,2.72-.68,17.36-4.66,11.23-3.97-6.12-12.36,1.36-1.81,13.96,.89,1.06,1.72,2.17,2.42,3.36,1.85,3.1,2.82,6.97,.49,10.09-.71,.94-1.63,1.72-2.63,2.33Z"/><path class="cls-112" d="M44,47.02c-2.56-.95-9.53,5.89-5.77,14.91s-6.15,12.25-10.63,12.25-4.54,11.24,2.1,25.7c6.64,14.47-6.12,21.93-6.12,21.93-.64-.77-1.26-1.56-1.86-2.36-8.8-11.68-14.01-26.21-14.01-41.95,0-14.64,4.51-28.24,12.23-39.46,0,0,2.95,1.42,6.19-2.16,3.23-3.57,14.8,3.07,17.87,4.96,3.06,1.89,2.55,7.13,0,6.18Z"/><path class="cls-112" d="M112.33,137.99c-.52,.31-1.05,.6-1.58,.89-9.89,5.36-21.21,8.41-33.25,8.41-8.95,0-17.51-1.68-25.37-4.76h0c-.33-.56-10.04-16.7,7.03-12.52,17.36,4.26,14.47-3.74,17.87-3.06,6.78,1.35,21.01-4.06,23.66,5.96,2.43,9.21,11.12,5.32,11.65,5.08Z"/><path class="cls-112" d="M79.06,72.48c.89,1.06,1.72,2.17,2.42,3.36,1.85,3.1,2.82,6.97,.49,10.09-.71,.94-1.63,1.72-2.63,2.33-.51,.31-1.07,.68-1.66,.79-1.11,.21-2.31-.42-3.39,.04-2.9,1.24-4.39,5.09-5.53,7.77-.97,2.29-1.71,5.92-3.66,7.62-2.72,2.38-17.02-.68-10.55-6.13,6.47-5.44,1.02-5.1-4.42-16.34-5.45-11.23,4.42-18.72,4.42-18.72,0,0,21.79-18.72,30.98-16,9.19,2.72-.68,17.36-4.66,11.23-3.97-6.12-12.36,1.36-1.81,13.96Z"/></g><circle class="cls-108" cx="77.5" cy="77.5" r="69.79"/><g><polyline class="cls-70" points="5.29 16.78 36.81 34.95 36.81 59.31 47.24 70.22 67.83 70.22 78.02 94.86 101.31 103.3 106.23 117.47 125.57 124.35 141.79 146.46"/><polyline class="cls-70" points="142.52 118.53 142.68 145.45 117.44 145.25"/></g><g class="cls-107"><circle class="cls-80" cx="81.3" cy="17.82" r="6.55"/><circle class="cls-102" cx="91.86" cy="20.26" r="8.25"/><circle class="cls-30" cx="92.28" cy="15.25" r="8.68"/><circle class="cls-5" cx="82.91" cy="10.25" r="8.88"/><circle class="cls-103" cx="71.4" cy="12.9" r="7.91"/><circle class="cls-67" cx="81.09" cy="17.49" r="7.45"/><circle class="cls-15" cx="83.7" cy="15.29" r="6.66"/><circle class="cls-64" cx="94" cy="21.9" r="6.96"/><circle class="cls-46" cx="94.96" cy="24.19" r="6.33"/><circle class="cls-95" cx="102.29" cy="25.67" r="6.12"/><circle class="cls-52" cx="98.33" cy="26.39" r="8.17"/><circle class="cls-3" cx="99.93" cy="24.87" r="10.63"/><circle class="cls-21" cx="98.25" cy="22.61" r="8.14"/><circle class="cls-9" cx="95.26" cy="28.34" r="6.14"/><circle class="cls-31" cx="93.99" cy="30.66" r="10.05"/><circle class="cls-99" cx="96.16" cy="24.81" r="7.11"/><circle class="cls-94" cx="91.81" cy="21.87" r="10.68"/><circle class="cls-33" cx="87.75" cy="21.42" r="10.07"/><circle class="cls-66" cx="88.27" cy="13.82" r="10.18"/><circle class="cls-25" cx="86.48" cy="15.4" r="6.44"/><circle class="cls-29" cx="94.57" cy="17.51" r="8.21"/><circle class="cls-39" cx="92.86" cy="17.24" r="7.2"/><circle class="cls-10" cx="90.85" cy="18.81" r="7.28"/><circle class="cls-84" cx="81.15" cy="20.43" r="6.32"/></g><g class="cls-109"><circle class="cls-106" cx="79.64" cy="148.92" r="5.32"/><circle class="cls-48" cx="84.29" cy="139.57" r="7.23"/><circle class="cls-62" cx="78.23" cy="130.36" r="8.59"/><circle class="cls-53" cx="88.3" cy="128.39" r="5.7"/><circle class="cls-7" cx="84.06" cy="130.5" r="8.79"/><circle class="cls-82" cx="80.7" cy="128.8" r="5.79"/><circle class="cls-72" cx="80.63" cy="141.86" r="8.78"/><circle class="cls-77" cx="80.52" cy="135.08" r="10.89"/><circle class="cls-81" cx="75.49" cy="136.43" r="8.53"/><circle class="cls-104" cx="72.84" cy="141.38" r="10.13"/><circle class="cls-11" cx="58.57" cy="141.23" r="8.89"/><circle class="cls-86" cx="48.88" cy="143.47" r="8.87"/><circle class="cls-92" cx="60.95" cy="144.46" r="10.39"/><circle class="cls-47" cx="65.77" cy="143.43" r="10.69"/><circle class="cls-100" cx="72.33" cy="132.87" r="9.87"/><circle class="cls-89" cx="77.9" cy="142.56" r="8.69"/><circle class="cls-27" cx="86.21" cy="132.49" r="6.86"/><circle class="cls-55" cx="77.52" cy="132.13" r="8.27"/><circle class="cls-6" cx="68.31" cy="135.85" r="10.69"/><circle class="cls-74" cx="67.13" cy="148.35" r="8.66"/><circle class="cls-60" cx="78.32" cy="140.37" r="9.06"/><circle class="cls-76" cx="90.16" cy="134.87" r="5.15"/><circle class="cls-73" cx="94.53" cy="128.07" r="7.44"/><circle class="cls-38" cx="88.18" cy="129.69" r="5.01"/><circle class="cls-22" cx="70.71" cy="130.1" r="7.61"/><circle class="cls-42" cx="64.59" cy="130.33" r="5.69"/><circle class="cls-57" cx="59.19" cy="139.37" r="6.84"/><circle class="cls-50" cx="73.89" cy="134.32" r="4.91"/><circle class="cls-18" cx="64.13" cy="143.45" r="6.52"/><circle class="cls-88" cx="58.02" cy="148.8" r="8.25"/></g><g class="cls-109"><circle class="cls-63" cx="124.86" cy="83.95" r="8.14"/><circle class="cls-32" cx="111.97" cy="76.47" r="5.45"/><circle class="cls-37" cx="117.27" cy="83.63" r="10.17"/><circle class="cls-69" cx="133.58" cy="85.72" r="7.44"/><circle class="cls-78" cx="129.89" cy="76.63" r="9.61"/><circle class="cls-68" cx="123.69" cy="79.1" r="5.6"/><circle class="cls-93" cx="115.13" cy="90.79" r="5.26"/><circle class="cls-105" cx="117.99" cy="98.82" r="6.2"/><circle class="cls-90" cx="117.94" cy="88.72" r="7.06"/><circle class="cls-35" cx="114.49" cy="75.08" r="4.7"/><circle class="cls-20" cx="108.97" cy="87.29" r="6.21"/><circle class="cls-87" cx="119.25" cy="90.65" r="4.99"/><circle class="cls-4" cx="127.17" cy="93.99" r="8.54"/><circle class="cls-40" cx="128.7" cy="83.35" r="10.63"/><circle class="cls-43" cx="122.68" cy="80.41" r="8.3"/><circle class="cls-83" cx="124.96" cy="75.12" r="10.78"/><circle class="cls-56" cx="134.5" cy="77.85" r="7.7"/><circle class="cls-71" cx="132.54" cy="74.8" r="5.81"/><circle class="cls-91" cx="144.99" cy="78.96" r="6.84"/><circle class="cls-85" cx="140.22" cy="68.42" r="4.68"/><circle class="cls-51" cx="126.08" cy="79.4" r="7.72"/><circle class="cls-41" cx="137.37" cy="86.74" r="8.18"/><circle class="cls-12" cx="139.12" cy="84.09" r="6.75"/><circle class="cls-13" cx="143.11" cy="80.97" r="9.99"/><circle class="cls-44" cx="138.46" cy="71.66" r="5.91"/><circle class="cls-79" cx="135.18" cy="79.88" r="8.25"/><circle class="cls-23" cx="140.98" cy="76.25" r="8.48"/><circle class="cls-2" cx="137.97" cy="70.15" r="4.69"/><circle class="cls-96" cx="133.14" cy="79.97" r="8.76"/><circle class="cls-26" cx="122.94" cy="86.28" r="7.47"/></g><g class="cls-107"><circle class="cls-49" cx="20.33" cy="92.6" r="7.7"/><circle class="cls-61" cx="29.66" cy="81.25" r="9.98"/><circle class="cls-34" cx="23.34" cy="73.93" r="7.61"/><circle class="cls-24" cx="14.56" cy="86.39" r="5.95"/><circle class="cls-58" cx="20.03" cy="84.16" r="7.79"/><circle class="cls-1" cx="22.7" cy="75.93" r="5.07"/><circle class="cls-101" cx="20.25" cy="82.12" r="10.27"/><circle class="cls-54" cx="29.67" cy="78.59" r="10.23"/><circle class="cls-19" cx="26.05" cy="80.72" r="4.69"/><circle class="cls-14" cx="17.08" cy="85.64" r="5.7"/><circle class="cls-36" cx="13" cy="88.35" r="8.27"/><circle class="cls-59" cx="15.05" cy="93.06" r="9.85"/><circle class="cls-98" cx="13.61" cy="81.86" r="5.17"/><circle class="cls-65" cx="12.58" cy="87.56" r="10.6"/><circle class="cls-16" cx="24.8" cy="83.44" r="8.11"/><circle class="cls-8" cx="12.27" cy="80.13" r="10.33"/><circle class="cls-28" cx="21.58" cy="89.16" r="11.02"/><circle class="cls-75" cx="33.7" cy="82.29" r="9.1"/><circle class="cls-17" cx="28.26" cy="73.74" r="8.42"/><circle class="cls-45" cx="19.14" cy="82.77" r="8.12"/><circle class="cls-97" cx="13.42" cy="92.68" r="7.5"/></g></svg>