<?xml version="1.0" encoding="UTF-8"?><svg id="a" xmlns="http://www.w3.org/2000/svg" xmlns:xlink="http://www.w3.org/1999/xlink" viewBox="0 0 255.51 257.02"><defs><style>.d,.e,.f,.g,.h,.i,.j,.k,.l,.m,.n,.o,.p,.q,.r,.s,.t,.u,.v,.w,.x,.y,.z,.aa,.ab,.ac,.ad,.ae,.af,.ag,.ah,.ai,.aj,.ak,.al,.am,.an,.ao,.ap,.aq,.ar,.as,.at,.au,.av,.aw,.ax,.ay,.az,.ba,.bb,.bc,.bd,.be,.bf,.bg,.bh,.bi,.bj,.bk,.bl,.bm,.bn,.bo,.bp,.bq,.br,.bs,.bt,.bu,.bv,.bw,.bx,.by,.bz,.ca,.cb,.cc,.cd,.ce,.cf{stroke-miterlimit:10;}.d,.e,.f,.g,.j,.k,.n,.o,.s,.t,.v,.x,.y,.z,.aa,.ab,.ae,.ag,.ai,.ak,.an,.ao,.ar,.au,.aw,.ay,.bb,.bf,.bg,.bi,.bk,.bl,.bm,.bo,.bs,.bt,.bv,.bw,.bx,.ca,.cd,.ce,.cf{fill:#ededed;stroke:#ededed;}.d,.ad{stroke-width:2.15px;}.e,.p{stroke-width:2.05px;}.f{stroke-width:1.67px;}.g{stroke-width:2.11px;}.h,.i,.l,.m,.p,.q,.r,.u,.w,.ac,.ad,.af,.ah,.aj,.al,.ap,.aq,.as,.at,.av,.ax,.az,.ba,.bc,.bd,.be,.bh,.bj,.bn,.bp,.bq,.br,.bu,.by,.bz,.cb,.cc{fill:#585857;stroke:#585857;}.h,.y{stroke-width:2.64px;}.cg{fill:url(#c);isolation:isolate;}.cg,.ch{opacity:.5;}.i{stroke-width:2.49px;}.j{stroke-width:1.36px;}.k,.bh{stroke-width:1.85px;}.l{stroke-width:1.87px;}.m{stroke-width:1.8px;}.n{stroke-width:2.7px;}.o,.al{stroke-width:2.66px;}.q,.bl{stroke-width:2.02px;}.r,.ce{stroke-width:2.51px;}.s{stroke-width:2.25px;}.t{stroke-width:1.21px;}.ci{fill:#9dd4d8;}.u{stroke-width:2.26px;}.v{stroke-width:2.16px;}.w{stroke-width:2.54px;}.x{stroke-width:2.18px;}.z{stroke-width:1.25px;}.aa,.at{stroke-width:1.41px;}.ab,.aq{stroke-width:1.62px;}.ac{stroke-width:1.77px;}.ae,.bd{stroke-width:2.48px;}.af{stroke-width:2.44px;}.ag,.bq{stroke-width:2.03px;}.ah,.bw{stroke-width:2.52px;}.ai,.aj{stroke-width:1.16px;}.ak,.bu{stroke-width:1.79px;}.am{fill:none;stroke:#8d693e;stroke-width:14.75px;}.an{stroke-width:1.31px;}.ao,.bp{stroke-width:2.1px;}.ap,.bx{stroke-width:2.21px;}.ar,.az{stroke-width:1.89px;}.as,.aw{stroke-width:1.28px;}.au{stroke-width:1.54px;}.cj{opacity:.6;}.av{stroke-width:1.57px;}.ck{fill:#b4bf56;}.ax{stroke-width:1.66px;}.ay{stroke-width:1.39px;}.ba{stroke-width:1.52px;}.bb{stroke-width:1.44px;}.bc{stroke-width:2.74px;}.be{stroke-width:1.97px;}.cl{fill:url(#b);}.bf{stroke-width:2.57px;}.bg{stroke-width:2.2px;}.bi,.bz{stroke-width:1.92px;}.bj,.bt{stroke-width:1.48px;}.bk{stroke-width:2.13px;}.bm{stroke-width:2.46px;}.bn{stroke-width:1.93px;}.bo{stroke-width:1.7px;}.br{stroke-width:2.56px;}.bs{stroke-width:2.67px;}.bv{stroke-width:2.07px;}.by{stroke-width:1.61px;}.ca{stroke-width:1.75px;}.cb{stroke-width:1.26px;}.cc{stroke-width:1.72px;}.cd{stroke-width:1.33px;}.cf{stroke-width:2.39px;}</style><radialGradient id="b" cx="119.24" cy="123.54" fx="119.24" fy="123.54" r="122.12" gradientTransform="translate(2.98 252.93) scale(1.04 -1.03)" gradientUnits="userSpaceOnUse"><stop offset=".93" stop-color="#a1d4d7"/><stop offset=".99" stop-color="#f1f1f1" stop-opacity="0"/></radialGradient><linearGradient id="c" x1="196.04" y1="97.48" x2="-2.36" y2="212.03" gradientTransform="translate(8.07 264.18) rotate(8.93) scale(1 -1)" gradientUnits="userSpaceOnUse"><stop offset=".02" stop-color="#fff" stop-opacity=".5"/><stop offset=".48" stop-color="#020101" stop-opacity="0"/><stop offset=".7" stop-color="#1d1d1b" stop-opacity="0"/><stop offset="1" stop-color="#020101"/></linearGradient></defs><ellipse class="cl" cx="127.75" cy="126.33" rx="127.75" ry="126.33"/><path class="ck" d="m185.2,27.74c0,.2-.12,9.47-21.2,16.66-21.33,7.27-35.92-10.04-48.27-12.11-12.35-2.05-16.83,13.15-34.24,12.05-17.39-1.11-18.48-12.05-18.48-12.05,18.45-12.45,40.73-19.72,64.73-19.72,20.92,0,40.54,5.53,57.45,15.18Z"/><path class="ck" d="m242.8,126.33c0,35.27-16.22,66.78-41.71,87.63,0-30.65-58.42-38.66-65.71-45.32-7.3-6.67,6.73-14.43,11.21-14.43s22.45-4.45,11.79-34.41c-10.65-29.96,67.29-53.24,67.29-53.24,10.86,17.36,17.13,37.83,17.13,59.76Z"/><path class="ci" d="m135.39,168.65c-7.3-6.67,6.73-14.43,11.21-14.43s22.45-4.45,11.79-34.41c-10.65-29.96,67.29-53.24,67.29-53.24-10.02-16.02-23.95-29.39-40.47-38.83,0,.2-.12,9.47-21.2,16.66-21.33,7.27-35.92-10.04-48.27-12.11-12.35-2.05-16.83,13.15-34.24,12.05-17.39-1.11-18.48-12.05-18.48-12.05-11.82,7.95-22.06,18.04-30.15,29.72,0,0,4.86,2.31,10.2-3.52,5.32-5.82,24.4,5,29.46,8.09,5.04,3.08,4.2,11.62,0,10.07-4.22-1.55-15.71,9.6-9.51,24.3,6.2,14.7-10.14,19.97-17.52,19.97s-7.48,18.32,3.46,41.89c10.95,23.59-10.09,35.75-10.09,35.75,12.4,14.91,28.55,26.65,47.05,33.76-.54-.9-16.55-27.21,11.59-20.39,28.62,6.94,23.85-6.1,29.46-4.99,11.18,2.2,34.63-6.62,39,9.72,4.01,15.01,18.33,8.67,19.2,8.28.02-.02.03-.02.03-.02,5.62-3.19,10.93-6.88,15.89-10.94h0c0-30.66-58.42-38.68-65.71-45.33h0Zm-4.6-24.78c-.84.51-1.76,1.11-2.74,1.29-1.83.34-3.81-.68-5.59.07-4.78,2.02-7.24,8.3-9.12,12.67-1.6,3.73-2.82,9.65-6.03,12.42-4.48,3.88-28.06-1.11-17.39-9.99,10.67-8.87,1.68-8.31-7.29-26.64-8.98-18.31,7.29-30.51,7.29-30.51,0,0,35.92-30.51,51.07-26.08,15.15,4.43-1.12,28.3-7.68,18.31-6.54-9.98-20.37,2.22-2.98,22.76,1.47,1.73,2.84,3.54,3.99,5.48,3.05,5.05,4.65,11.36.81,16.45-1.17,1.53-2.69,2.8-4.34,3.8h0Z"/><path class="ck" d="m72.53,76.65c-4.22-1.55-15.71,9.6-9.51,24.3,6.2,14.7-10.14,19.97-17.52,19.97s-7.48,18.32,3.46,41.89c10.95,23.59-10.09,35.75-10.09,35.75-1.06-1.26-2.08-2.54-3.07-3.85-14.51-19.04-23.09-42.72-23.09-68.38,0-23.86,7.43-46.03,20.16-64.32,0,0,4.86,2.31,10.2-3.52,5.32-5.82,24.4,5,29.46,8.09,5.04,3.08,4.2,11.62,0,10.07Z"/><path class="ck" d="m185.17,224.93c-.86.51-1.73.98-2.6,1.45-16.3,8.74-34.96,13.71-54.81,13.71-14.75,0-28.86-2.74-41.82-7.76h0c-.54-.91-16.55-27.22,11.59-20.41,28.62,6.94,23.85-6.1,29.46-4.99,11.18,2.2,34.63-6.62,39,9.72,4.01,15.01,18.33,8.67,19.2,8.28h-.02Z"/><path class="ck" d="m130.33,118.15c1.47,1.73,2.84,3.54,3.99,5.48,3.05,5.05,4.65,11.36.81,16.45-1.17,1.53-2.69,2.8-4.34,3.8-.84.51-1.76,1.11-2.74,1.29-1.83.34-3.81-.68-5.59.07-4.78,2.02-7.24,8.3-9.12,12.67-1.6,3.73-2.82,9.65-6.03,12.42-4.48,3.88-28.06-1.11-17.39-9.99,10.67-8.87,1.68-8.31-7.29-26.64-8.98-18.31,7.29-30.51,7.29-30.51,0,0,35.92-30.51,51.07-26.08,15.15,4.43-1.12,28.3-7.68,18.31-6.54-9.98-20.37,2.22-2.98,22.76h0Z"/><ellipse class="cg" cx="127.75" cy="126.33" rx="115.05" ry="113.76"/><polyline class="am" points="8.72 27.35 60.68 56.97 60.68 96.68 77.87 114.46 111.81 114.46 128.61 154.63 167 168.38 175.11 191.48 207 202.7 233.73 238.74"/><polyline class="am" points="234.94 193.21 235.2 237.09 193.59 236.77"/><g class="ch"><ellipse class="aq" cx="134.02" cy="29.05" rx="10.8" ry="10.68"/><ellipse class="p" cx="151.43" cy="33.02" rx="13.6" ry="13.45"/><ellipse class="ad" cx="152.12" cy="24.86" rx="14.31" ry="14.15"/><ellipse class="ap" cx="136.67" cy="16.71" rx="14.64" ry="14.47"/><ellipse class="be" cx="117.7" cy="21.03" rx="13.04" ry="12.89"/><ellipse class="bh" cx="133.67" cy="28.51" rx="12.28" ry="12.14"/><ellipse class="ax" cx="137.98" cy="24.92" rx="10.98" ry="10.86"/><ellipse class="cc" cx="154.95" cy="35.7" rx="11.47" ry="11.35"/><ellipse class="av" cx="156.54" cy="39.43" rx="10.43" ry="10.32"/><ellipse class="ba" cx="168.62" cy="41.84" rx="10.09" ry="9.98"/><ellipse class="bq" cx="162.09" cy="43.02" rx="13.47" ry="13.32"/><ellipse class="h" cx="164.73" cy="40.54" rx="17.52" ry="17.33"/><ellipse class="q" cx="161.96" cy="36.86" rx="13.42" ry="13.27"/><ellipse class="ba" cx="157.03" cy="46.2" rx="10.12" ry="10.01"/><ellipse class="i" cx="154.94" cy="49.98" rx="16.57" ry="16.38"/><ellipse class="ac" cx="158.52" cy="40.44" rx="11.72" ry="11.59"/><ellipse class="al" cx="151.34" cy="35.65" rx="17.61" ry="17.41"/><ellipse class="r" cx="144.65" cy="34.92" rx="16.6" ry="16.41"/><ellipse class="ah" cx="145.51" cy="22.53" rx="16.78" ry="16.59"/><ellipse class="by" cx="142.56" cy="25.1" rx="10.62" ry="10.5"/><ellipse class="bq" cx="155.89" cy="28.54" rx="13.53" ry="13.38"/><ellipse class="bu" cx="153.08" cy="28.1" rx="11.87" ry="11.74"/><ellipse class="m" cx="149.76" cy="30.66" rx="12" ry="11.87"/><ellipse class="av" cx="133.77" cy="33.3" rx="10.42" ry="10.3"/></g><g class="cj"><ellipse class="cd" cx="131.28" cy="242.75" rx="8.77" ry="8.67"/><ellipse class="ak" cx="138.95" cy="227.51" rx="11.92" ry="11.79"/><ellipse class="bk" cx="128.96" cy="212.49" rx="14.16" ry="14"/><ellipse class="aa" cx="145.56" cy="209.28" rx="9.4" ry="9.29"/><ellipse class="x" cx="138.57" cy="212.72" rx="14.49" ry="14.33"/><ellipse class="bb" cx="133.03" cy="209.95" rx="9.54" ry="9.44"/><ellipse class="x" cx="132.91" cy="231.24" rx="14.47" ry="14.31"/><ellipse class="n" cx="132.73" cy="220.19" rx="17.95" ry="17.75"/><ellipse class="g" cx="124.44" cy="222.39" rx="14.06" ry="13.9"/><ellipse class="ce" cx="120.07" cy="230.46" rx="16.7" ry="16.51"/><ellipse class="bx" cx="96.55" cy="230.21" rx="14.65" ry="14.49"/><ellipse class="bg" cx="80.58" cy="233.86" rx="14.62" ry="14.46"/><ellipse class="bf" cx="100.47" cy="235.48" rx="17.13" ry="16.94"/><ellipse class="o" cx="108.42" cy="233.8" rx="17.62" ry="17.43"/><ellipse class="bm" cx="119.23" cy="216.59" rx="16.27" ry="16.09"/><ellipse class="v" cx="128.41" cy="232.38" rx="14.33" ry="14.17"/><ellipse class="bo" cx="142.11" cy="215.97" rx="11.31" ry="11.18"/><ellipse class="e" cx="127.79" cy="215.38" rx="13.63" ry="13.48"/><ellipse class="o" cx="112.61" cy="221.44" rx="17.62" ry="17.43"/><ellipse class="d" cx="110.66" cy="241.82" rx="14.28" ry="14.12"/><ellipse class="s" cx="129.11" cy="228.81" rx="14.93" ry="14.77"/><ellipse class="aw" cx="148.62" cy="219.85" rx="8.49" ry="8.39"/><ellipse class="k" cx="155.83" cy="208.76" rx="12.26" ry="12.13"/><ellipse class="z" cx="145.36" cy="211.4" rx="8.26" ry="8.17"/><ellipse class="ar" cx="116.56" cy="212.07" rx="12.54" ry="12.4"/><ellipse class="aa" cx="106.47" cy="212.44" rx="9.38" ry="9.28"/><ellipse class="bo" cx="97.57" cy="227.18" rx="11.28" ry="11.15"/><ellipse class="t" cx="121.8" cy="218.95" rx="8.09" ry="8"/><ellipse class="ab" cx="105.72" cy="233.83" rx="10.75" ry="10.63"/><ellipse class="e" cx="95.64" cy="242.55" rx="13.6" ry="13.45"/></g><g class="cj"><ellipse class="bl" cx="205.83" cy="136.84" rx="13.42" ry="13.27"/><ellipse class="j" cx="184.58" cy="124.65" rx="8.98" ry="8.88"/><ellipse class="bw" cx="193.31" cy="136.32" rx="16.76" ry="16.58"/><ellipse class="k" cx="220.2" cy="139.73" rx="12.26" ry="12.13"/><ellipse class="cf" cx="214.12" cy="124.91" rx="15.84" ry="15.66"/><ellipse class="ay" cx="203.9" cy="128.94" rx="9.23" ry="9.13"/><ellipse class="an" cx="189.79" cy="147.99" rx="8.67" ry="8.57"/><ellipse class="au" cx="194.5" cy="161.08" rx="10.22" ry="10.11"/><ellipse class="ca" cx="194.42" cy="144.62" rx="11.64" ry="11.51"/><ellipse class="ai" cx="188.73" cy="122.38" rx="7.75" ry="7.66"/><ellipse class="au" cx="179.63" cy="142.29" rx="10.24" ry="10.12"/><ellipse class="z" cx="196.58" cy="147.76" rx="8.23" ry="8.13"/><ellipse class="g" cx="209.63" cy="153.21" rx="14.08" ry="13.92"/><ellipse class="y" cx="212.16" cy="135.87" rx="17.52" ry="17.33"/><ellipse class="bv" cx="202.23" cy="131.07" rx="13.68" ry="13.53"/><ellipse class="bs" cx="205.99" cy="122.45" rx="17.77" ry="17.57"/><ellipse class="bi" cx="221.72" cy="126.9" rx="12.69" ry="12.55"/><ellipse class="bb" cx="218.49" cy="121.93" rx="9.58" ry="9.47"/><ellipse class="bo" cx="239.01" cy="128.71" rx="11.28" ry="11.15"/><ellipse class="ai" cx="231.15" cy="111.53" rx="7.71" ry="7.63"/><ellipse class="bi" cx="207.84" cy="129.43" rx="12.73" ry="12.58"/><ellipse class="ag" cx="226.45" cy="141.39" rx="13.48" ry="13.33"/><ellipse class="f" cx="229.33" cy="137.07" rx="11.13" ry="11"/><ellipse class="ae" cx="235.91" cy="131.99" rx="16.47" ry="16.28"/><ellipse class="bt" cx="228.24" cy="116.81" rx="9.74" ry="9.63"/><ellipse class="e" cx="222.84" cy="130.21" rx="13.6" ry="13.45"/><ellipse class="ao" cx="232.4" cy="124.29" rx="13.98" ry="13.82"/><ellipse class="ai" cx="227.44" cy="114.35" rx="7.73" ry="7.64"/><ellipse class="x" cx="219.47" cy="130.36" rx="14.44" ry="14.28"/><ellipse class="k" cx="202.66" cy="140.64" rx="12.31" ry="12.18"/></g><g class="ch"><ellipse class="bz" cx="33.51" cy="150.94" rx="12.69" ry="12.55"/><ellipse class="bd" cx="48.89" cy="132.44" rx="16.45" ry="16.27"/><ellipse class="az" cx="38.47" cy="120.51" rx="12.54" ry="12.4"/><ellipse class="bj" cx="24" cy="140.82" rx="9.81" ry="9.7"/><ellipse class="bn" cx="33.02" cy="137.19" rx="12.84" ry="12.7"/><ellipse class="cb" cx="37.42" cy="123.77" rx="8.36" ry="8.26"/><ellipse class="br" cx="33.38" cy="133.86" rx="16.93" ry="16.74"/><ellipse class="w" cx="48.91" cy="128.11" rx="16.86" ry="16.68"/><ellipse class="aj" cx="42.94" cy="131.58" rx="7.73" ry="7.64"/><ellipse class="at" cx="28.16" cy="139.6" rx="9.4" ry="9.29"/><ellipse class="p" cx="21.43" cy="144.02" rx="13.63" ry="13.48"/><ellipse class="af" cx="24.81" cy="151.69" rx="16.24" ry="16.06"/><ellipse class="as" cx="22.44" cy="133.44" rx="8.52" ry="8.43"/><ellipse class="h" cx="20.74" cy="142.73" rx="17.47" ry="17.28"/><ellipse class="q" cx="40.88" cy="136.01" rx="13.37" ry="13.22"/><ellipse class="br" cx="20.23" cy="130.62" rx="17.03" ry="16.84"/><ellipse class="bc" cx="35.57" cy="145.34" rx="18.17" ry="17.96"/><ellipse class="u" cx="55.55" cy="134.14" rx="15" ry="14.83"/><ellipse class="bp" cx="46.59" cy="120.2" rx="13.88" ry="13.73"/><ellipse class="q" cx="31.55" cy="134.92" rx="13.39" ry="13.24"/><ellipse class="l" cx="22.12" cy="151.07" rx="12.36" ry="12.23"/></g></svg>